<svg xmlns="http://www.w3.org/2000/svg" viewBox="0 0 400 540" width="400" height="540">
  <defs>
    <linearGradient id="bg" x1="0%" y1="0%" x2="0%" y2="100%">
      <stop offset="0%" stop-color="#2E6B4F"/>
      <stop offset="30%" stop-color="#245a42"/>
      <stop offset="70%" stop-color="#1a4532"/>
      <stop offset="100%" stop-color="#4e3a27"/>
    </linearGradient>
    <radialGradient id="glow" cx="50%" cy="35%" r="50%">
      <stop offset="0%" stop-color="#3d8a65" stop-opacity="0.25"/>
      <stop offset="100%" stop-color="#2E6B4F" stop-opacity="0"/>
    </radialGradient>
  </defs>
  <rect width="400" height="540" fill="url(#bg)"/>
  <g opacity="0.1">
    <line x1="15" y1="0" x2="15" y2="540" stroke="#2E6B4F" stroke-width="1"/>
    <line x1="35" y1="0" x2="35" y2="540" stroke="#3d8a65" stroke-width="0.5"/>
    <line x1="55" y1="0" x2="55" y2="540" stroke="#2E6B4F" stroke-width="1"/>
    <line x1="75" y1="0" x2="75" y2="540" stroke="#1a4532" stroke-width="0.5"/>
    <line x1="95" y1="0" x2="95" y2="540" stroke="#2E6B4F" stroke-width="1"/>
    <line x1="115" y1="0" x2="115" y2="540" stroke="#3d8a65" stroke-width="0.5"/>
    <line x1="135" y1="0" x2="135" y2="540" stroke="#2E6B4F" stroke-width="1"/>
    <line x1="155" y1="0" x2="155" y2="540" stroke="#1a4532" stroke-width="0.5"/>
    <line x1="175" y1="0" x2="175" y2="540" stroke="#2E6B4F" stroke-width="1"/>
    <line x1="195" y1="0" x2="195" y2="540" stroke="#3d8a65" stroke-width="0.5"/>
    <line x1="215" y1="0" x2="215" y2="540" stroke="#2E6B4F" stroke-width="1"/>
    <line x1="235" y1="0" x2="235" y2="540" stroke="#1a4532" stroke-width="0.5"/>
    <line x1="255" y1="0" x2="255" y2="540" stroke="#2E6B4F" stroke-width="1"/>
    <line x1="275" y1="0" x2="275" y2="540" stroke="#3d8a65" stroke-width="0.5"/>
    <line x1="295" y1="0" x2="295" y2="540" stroke="#2E6B4F" stroke-width="1"/>
    <line x1="315" y1="0" x2="315" y2="540" stroke="#1a4532" stroke-width="0.5"/>
    <line x1="335" y1="0" x2="335" y2="540" stroke="#2E6B4F" stroke-width="1"/>
    <line x1="355" y1="0" x2="355" y2="540" stroke="#3d8a65" stroke-width="0.5"/>
    <line x1="375" y1="0" x2="375" y2="540" stroke="#2E6B4F" stroke-width="1"/>
  </g>
  <g opacity="0.06">
    <line x1="25" y1="0" x2="25" y2="540" stroke="#4e8a6a" stroke-width="2"/>
    <line x1="105" y1="0" x2="105" y2="540" stroke="#4e8a6a" stroke-width="2"/>
    <line x1="185" y1="0" x2="185" y2="540" stroke="#4e8a6a" stroke-width="2"/>
    <line x1="265" y1="0" x2="265" y2="540" stroke="#4e8a6a" stroke-width="2"/>
    <line x1="345" y1="0" x2="345" y2="540" stroke="#4e8a6a" stroke-width="2"/>
  </g>
  <rect width="400" height="540" fill="url(#glow)"/>
  <rect x="120" y="240" width="160" height="60" rx="8" fill="none" stroke="#4e8a6a" stroke-width="0.5" opacity="0.15"/>
  <text x="200" y="265" text-anchor="middle" font-family="Georgia, serif" font-size="10" fill="#4e8a6a" opacity="0.2" letter-spacing="2">VELOURS</text>
  <text x="200" y="285" text-anchor="middle" font-family="Georgia, serif" font-size="8" fill="#4e8a6a" opacity="0.15" letter-spacing="5">FONDÉ</text>
</svg>