<svg xmlns="http://www.w3.org/2000/svg" viewBox="0 0 400 540" width="400" height="540">
  <defs>
    <linearGradient id="bg" x1="0%" y1="0%" x2="100%" y2="100%">
      <stop offset="0%" stop-color="#F5E6CA"/>
      <stop offset="50%" stop-color="#f0dbb8"/>
      <stop offset="100%" stop-color="#F5E6CA"/>
    </linearGradient>
    <radialGradient id="glow" cx="50%" cy="40%" r="55%">
      <stop offset="0%" stop-color="#FFFFFF" stop-opacity="0.5"/>
      <stop offset="100%" stop-color="#F5E6CA" stop-opacity="0"/>
    </radialGradient>
    <pattern id="cashmere_dot" x="0" y="0" width="16" height="16" patternUnits="userSpaceOnUse">
      <circle cx="8" cy="8" r="0.8" fill="#b4905f" opacity="0.15"/>
      <circle cx="0" cy="0" r="0.6" fill="#b4905f" opacity="0.1"/>
      <circle cx="16" cy="16" r="0.6" fill="#b4905f" opacity="0.1"/>
    </pattern>
  </defs>
  <rect width="400" height="540" fill="url(#bg)"/>
  <rect width="400" height="540" fill="url(#cashmere_dot)"/>
  <g opacity="0.08">
    <path d="M0,60 Q100,40 200,60 Q300,80 400,60" fill="none" stroke="#b4905f" stroke-width="1"/>
    <path d="M0,120 Q100,100 200,120 Q300,140 400,120" fill="none" stroke="#b4905f" stroke-width="1"/>
    <path d="M0,180 Q100,160 200,180 Q300,200 400,180" fill="none" stroke="#b4905f" stroke-width="1"/>
    <path d="M0,240 Q100,220 200,240 Q300,260 400,240" fill="none" stroke="#b4905f" stroke-width="1"/>
    <path d="M0,300 Q100,280 200,300 Q300,320 400,300" fill="none" stroke="#b4905f" stroke-width="1"/>
    <path d="M0,360 Q100,340 200,360 Q300,380 400,360" fill="none" stroke="#b4905f" stroke-width="1"/>
    <path d="M0,420 Q100,400 200,420 Q300,440 400,420" fill="none" stroke="#b4905f" stroke-width="1"/>
    <path d="M0,480 Q100,460 200,480 Q300,500 400,480" fill="none" stroke="#b4905f" stroke-width="1"/>
  </g>
  <rect width="400" height="540" fill="url(#glow)"/>
  <rect x="120" y="240" width="160" height="60" rx="8" fill="none" stroke="#b4905f" stroke-width="0.5" opacity="0.12"/>
  <text x="200" y="265" text-anchor="middle" font-family="Georgia, serif" font-size="10" fill="#b4905f" opacity="0.2" letter-spacing="2">CACHEMIRE</text>
  <text x="200" y="285" text-anchor="middle" font-family="Georgia, serif" font-size="8" fill="#b4905f" opacity="0.15" letter-spacing="5">PRESTIGE</text>
</svg>